<svg aria-hidden="true" style="position: absolute; width: 0; height: 0; overflow: hidden;" version="1.1" xmlns="http://www.w3.org/2000/svg" xmlns:xlink="http://www.w3.org/1999/xlink">
<defs>
<symbol id="icon-tel" viewBox="0 0 32 32">
<path fill="#dda046" style="fill: var(--color1, #dda046)" d="M21.709 30.446h-0.376c-1.988-0.167-3.922-0.715-5.692-1.613-3.82-1.808-7.204-4.385-9.927-7.559-2.073-2.334-3.713-5.001-4.846-7.883-0.627-1.466-0.92-3.047-0.86-4.633 0.068-1.118 0.571-2.17 1.407-2.94 0.435-0.4 0.855-0.809 1.27-1.218 0.322-0.319 0.62-0.585 0.923-0.875 0.283-0.303 0.629-0.545 1.013-0.71s0.801-0.251 1.222-0.251c0.421 0 0.837 0.086 1.222 0.251s0.73 0.407 1.013 0.71c0.591 0.566 1.177 1.142 1.764 1.722l0.528 0.514 1.172 1.146c0.323 0.277 0.582 0.618 0.759 1.001s0.269 0.797 0.269 1.216c0 0.419-0.092 0.834-0.269 1.216s-0.436 0.723-0.759 1.001l-0.533 0.519c-0.464 0.452-0.923 0.904-1.392 1.351 0.446 0.908 1.009 1.757 1.676 2.526 1.454 1.802 3.206 3.357 5.183 4.6 0.23 0.138 0.488 0.266 0.772 0.4l0.259 0.124c0.635-0.633 1.28-1.256 1.925-1.879 0.283-0.307 0.629-0.552 1.016-0.72s0.805-0.254 1.229-0.254 0.842 0.087 1.229 0.254c0.387 0.168 0.733 0.413 1.016 0.72 1.169 1.126 2.332 2.258 3.488 3.397 0.317 0.278 0.571 0.618 0.744 0.998s0.263 0.791 0.263 1.207c0 0.416-0.090 0.827-0.263 1.207s-0.427 0.72-0.744 0.998c-0.225 0.219-0.454 0.438-0.684 0.657-0.444 0.423-0.87 0.823-1.255 1.251-0.472 0.511-1.053 0.915-1.704 1.183s-1.353 0.393-2.058 0.367zM2.7 12.73c1.056 2.676 2.582 5.154 4.509 7.321 2.547 2.967 5.711 5.374 9.282 7.064 1.532 0.8 3.217 1.285 4.949 1.427 0.475 0.055 0.956-0.003 1.402-0.169s0.845-0.434 1.162-0.782c0.435-0.476 0.899-0.918 1.353-1.346 0.22-0.209 0.44-0.419 0.66-0.633 0.139-0.1 0.251-0.231 0.328-0.381s0.118-0.316 0.118-0.484c0-0.168-0.040-0.334-0.118-0.484s-0.19-0.281-0.328-0.381c-1.153-1.135-2.312-2.264-3.478-3.387-0.101-0.128-0.231-0.232-0.38-0.304s-0.313-0.109-0.479-0.109-0.33 0.037-0.479 0.109c-0.149 0.071-0.279 0.175-0.381 0.304-0.733 0.709-1.466 1.399-2.145 2.103-0.214 0.24-0.507 0.4-0.829 0.452s-0.652-0.007-0.935-0.167c-0.176-0.095-0.357-0.181-0.532-0.262-0.308-0.148-0.625-0.3-0.938-0.476-2.16-1.356-4.074-3.052-5.662-5.019-0.856-0.984-1.559-2.085-2.086-3.268-0.131-0.266-0.17-0.566-0.111-0.855s0.213-0.552 0.438-0.748c0.542-0.509 1.075-1.028 1.602-1.551l0.533-0.523c0.611-0.599 0.611-1.142 0-1.755l-1.163-1.137-0.533-0.519c-0.581-0.576-1.163-1.146-1.749-1.703-0.102-0.128-0.233-0.232-0.383-0.304s-0.315-0.109-0.481-0.109c-0.167 0-0.332 0.037-0.481 0.109s-0.281 0.175-0.383 0.304c-0.303 0.285-0.591 0.571-0.884 0.856-0.43 0.423-0.865 0.847-1.309 1.256-0.498 0.445-0.795 1.064-0.826 1.722-0.038 1.304 0.209 2.601 0.723 3.806l0.015 0.024zM31.274 15.133h-1.954c-0.005-3.507-1.438-6.869-3.985-9.349s-6-3.875-9.601-3.88v-1.903c4.12 0.005 8.070 1.601 10.983 4.438s4.552 6.683 4.557 10.695zM26.071 15.133h-1.954c-0.003-2.164-0.887-4.239-2.458-5.77s-3.703-2.391-5.925-2.394v-1.903c2.74 0.004 5.368 1.066 7.306 2.952s3.028 4.445 3.032 7.114z"></path>
</symbol>
<symbol id="icon-viber" viewBox="0 0 30 32">
<path fill="#7c509a" style="fill: var(--color2, #7c509a)" d="M29.562 15.864c0 8.423-6.532 15.251-14.589 15.251s-14.589-6.828-14.589-15.251c0-8.423 6.532-15.251 14.589-15.251s14.589 6.828 14.589 15.251z"></path>
<path fill="#fff" style="fill: var(--color3, #fff)" d="M19.534 8.655c-2.78-0.555-5.668-0.555-8.448 0-1.23 0.278-2.78 1.832-3.048 3.053-0.481 2.387-0.481 4.829 0 7.216 0.321 1.221 1.871 2.775 3.048 3.053 0.053 0 0.107 0.056 0.107 0.111v3.497c0 0.166 0.214 0.278 0.321 0.111l1.604-1.721c0 0 1.283-1.388 1.497-1.61 0 0 0.054-0.056 0.107-0.056 1.604 0.056 3.262-0.111 4.866-0.389 1.23-0.278 2.78-1.832 3.048-3.053 0.481-2.387 0.481-4.829 0-7.216-0.321-1.166-1.871-2.72-3.101-2.997zM19.588 19.090c-0.267 0.555-0.588 0.999-1.123 1.277-0.16 0.056-0.321 0.111-0.481 0.166-0.214-0.055-0.374-0.111-0.535-0.166-1.711-0.722-3.315-1.721-4.598-3.164-0.695-0.833-1.283-1.776-1.765-2.775-0.214-0.5-0.428-0.944-0.588-1.443-0.16-0.444 0.107-0.888 0.374-1.221s0.588-0.555 0.962-0.722c0.267-0.167 0.535-0.056 0.749 0.166 0.428 0.555 0.856 1.11 1.176 1.721 0.214 0.389 0.16 0.833-0.214 1.11-0.107 0.056-0.16 0.111-0.267 0.222-0.053 0.056-0.16 0.111-0.214 0.222-0.107 0.167-0.107 0.333-0.053 0.5 0.428 1.277 1.23 2.276 2.46 2.831 0.214 0.111 0.374 0.167 0.642 0.167 0.374-0.056 0.535-0.5 0.802-0.722s0.588-0.222 0.909-0.056c0.267 0.166 0.535 0.389 0.856 0.611 0.267 0.222 0.535 0.389 0.802 0.611 0.16 0.111 0.214 0.389 0.107 0.666zM17.342 14.927c-0.107 0-0.053 0 0 0-0.214 0-0.267-0.111-0.321-0.277 0-0.111 0-0.278-0.053-0.389-0.053-0.222-0.16-0.444-0.374-0.611-0.107-0.056-0.214-0.111-0.321-0.166-0.16-0.056-0.267-0.056-0.428-0.056-0.16-0.056-0.214-0.166-0.214-0.333 0-0.111 0.16-0.222 0.267-0.222 0.856 0.056 1.497 0.555 1.604 1.61 0 0.056 0 0.167 0 0.222 0 0.111-0.053 0.222-0.16 0.222zM16.807 12.485c-0.267-0.111-0.535-0.222-0.856-0.278-0.107 0-0.267-0.055-0.374-0.055-0.16 0-0.267-0.111-0.214-0.278 0-0.166 0.107-0.278 0.267-0.222 0.535 0.056 1.016 0.166 1.497 0.389 0.962 0.5 1.497 1.332 1.657 2.442 0 0.056 0 0.111 0 0.167 0 0.111 0 0.222 0 0.389 0 0.056 0 0.111 0 0.166-0.053 0.222-0.428 0.278-0.481 0 0-0.056-0.053-0.166-0.053-0.222 0-0.5-0.107-0.999-0.321-1.443-0.321-0.5-0.695-0.833-1.123-1.055zM19.695 15.815c-0.16 0-0.267-0.166-0.267-0.333 0-0.333-0.053-0.666-0.107-0.999-0.214-1.776-1.604-3.219-3.262-3.497-0.267-0.056-0.535-0.056-0.749-0.111-0.16 0-0.374 0-0.428-0.222-0.053-0.166 0.107-0.333 0.267-0.333 0.053 0 0.107 0 0.107 0 0.107 0 2.192 0.056 0 0 2.246 0.056 4.117 1.61 4.491 3.941 0.053 0.389 0.107 0.777 0.107 1.221 0.107 0.166 0 0.333-0.16 0.333z"></path>
</symbol>
<symbol id="icon-telegram" viewBox="0 0 32 32">
<path fill="#039be5" style="fill: var(--color4, #039be5)" d="M15.792 31.573c8.56 0 15.5-6.939 15.5-15.5s-6.94-15.5-15.5-15.5-15.5 6.94-15.5 15.5c0 8.561 6.94 15.5 15.5 15.5z"></path>
<path fill="#fff" style="fill: var(--color3, #fff)" d="M7.853 15.737l15.934-5.762c0.739-0.251 1.385 0.169 1.146 1.218l0.001-0.001-2.713 11.988c-0.201 0.85-0.739 1.057-1.493 0.656l-4.131-2.856-1.993 1.801c-0.22 0.207-0.406 0.381-0.833 0.381l0.293-3.943 7.657-6.488c0.333-0.275-0.074-0.43-0.514-0.156l-9.462 5.588-4.079-1.194c-0.885-0.264-0.905-0.831 0.187-1.231z"></path>
</symbol>
<symbol id="icon-message" viewBox="0 0 32 32">
<path fill="#dda046" style="fill: var(--color1, #dda046)" d="M31.976 12.387c0-0.048-0.011-0.121-0.029-0.163-0.049-0.178-0.159-0.341-0.322-0.455l-4.581-3.184v-3.413c0-0.452-0.367-0.819-0.82-0.819h-5.27l-4.484-3.117c-0.28-0.195-0.652-0.196-0.933-0.002l-4.513 3.119h-5.247c-0.453 0-0.819 0.367-0.819 0.819v3.373l-4.603 3.181c-0.226 0.156-0.349 0.407-0.353 0.662-0 0.005-0.001 0.009-0.001 0.014l0.024 17.765c0 0.217 0.087 0.426 0.241 0.579s0.362 0.239 0.579 0.239c0 0 0.001 0 0.001 0l30.337-0.042c0.452-0.001 0.819-0.368 0.818-0.821l-0.024-17.737zM27.043 10.581l2.619 1.82-2.619 1.821v-3.64zM16.001 2.905l2.082 1.447h-4.176l2.094-1.447zM6.596 5.991h18.808v9.37l-6.315 4.39-2.575-1.997c-0.004-0.003-0.007-0.005-0.011-0.008-0.288-0.216-0.695-0.224-0.993 0.008l-2.593 2.012-6.321-4.368v-9.406zM4.957 10.537v3.727l-2.697-1.864 2.697-1.864zM1.641 13.966l9.917 6.853-9.897 7.676-0.020-14.53zM3.242 29.344l12.77-9.905 12.724 9.87-25.495 0.035zM20.447 20.804l9.892-6.877 0.020 14.566-9.912-7.689z"></path>
<path fill="#dda046" style="fill: var(--color1, #dda046)" d="M21.548 9.27h-11.096c-0.453 0-0.819 0.367-0.819 0.819s0.367 0.819 0.819 0.819h11.096c0.453 0 0.82-0.367 0.82-0.819s-0.367-0.819-0.82-0.819z"></path>
<path fill="#dda046" style="fill: var(--color1, #dda046)" d="M21.548 13.531h-11.096c-0.453 0-0.819 0.367-0.819 0.819s0.367 0.819 0.819 0.819h11.096c0.453 0 0.82-0.367 0.82-0.819s-0.367-0.819-0.82-0.819z"></path>
</symbol>
<symbol id="icon-map" viewBox="0 0 32 32">
<path fill="#dda046" style="fill: var(--color1, #dda046)" d="M31.245 7.117c-10.857-2.158-10.154-2.045-10.4-2.004-0.079 0.013-1.042 0.207-3.288 0.656-0.942-2.715-3.525-4.67-6.557-4.67-3.034 0-5.62 1.958-6.559 4.678l-3.32-0.66c-0.579-0.115-1.12 0.328-1.12 0.92v22c0 0.447 0.316 0.832 0.755 0.92 10.765 2.14 10.061 2.002 10.132 2.010 0.226 0.028-0.473 0.144 10.114-1.974l9.879 1.964c0.579 0.115 1.12-0.328 1.12-0.92v-22c0-0.447-0.316-0.832-0.755-0.92zM11 2.974c2.791 0 5.063 2.271 5.063 5.063 0 2.355-3.769 8.334-5.063 10.312-1.292-1.976-5.063-7.956-5.063-10.312 0-2.792 2.271-5.063 5.063-5.063zM1.875 7.178l2.201 0.437c-0.008 0.139-0.013 0.279-0.013 0.421 0 1.563 1.023 4.086 3.127 7.713 1.229 2.118 2.44 3.936 2.873 4.576v8.568l-8.188-1.627v-20.088zM11.938 20.325c0.434-0.64 1.645-2.459 2.873-4.576 2.104-3.627 3.127-6.15 3.127-7.713 0-0.144-0.005-0.287-0.014-0.429l2.139-0.428v20.088l-8.125 1.625v-8.567zM30.125 28.894l-8.188-1.627v-20.088l8.188 1.627v20.088z"></path>
<path fill="#dda046" style="fill: var(--color1, #dda046)" d="M11 10.974c1.62 0 2.938-1.318 2.938-2.938s-1.318-2.938-2.938-2.938c-1.62 0-2.938 1.318-2.938 2.938s1.318 2.938 2.938 2.938zM11 6.974c0.586 0 1.063 0.477 1.063 1.063s-0.477 1.063-1.063 1.063c-0.586 0-1.063-0.477-1.063-1.063s0.477-1.063 1.063-1.063z"></path>
</symbol>
</defs>
</svg>
